<?xml version="1.0" standalone="no"?>
<!DOCTYPE svg PUBLIC "-//W3C//DTD SVG 20010904//EN"
 "http://www.w3.org/TR/2001/REC-SVG-20010904/DTD/svg10.dtd">
<svg version="1.0" xmlns="http://www.w3.org/2000/svg"
 width="512.000000pt" height="512.000000pt" viewBox="0 0 512.000000 512.000000"
 preserveAspectRatio="xMidYMid meet">
<metadata>
Created by potrace 1.14, written by Peter Selinger 2001-2017
</metadata>
<g transform="translate(0.000000,512.000000) scale(0.100000,-0.100000)"
fill="#000000" stroke="none">
<path d="M2051 5096 c-8 -13 -25 -26 -40 -29 -14 -3 -48 -10 -76 -16 -27 -6
-76 -13 -109 -17 -46 -4 -59 -10 -63 -25 -6 -21 -17 -25 -98 -35 -78 -9 -125
-29 -125 -53 0 -16 -11 -20 -67 -27 -60 -8 -68 -12 -73 -34 -4 -19 -14 -26
-41 -30 -46 -8 -59 -17 -59 -41 0 -23 -10 -28 -76 -37 -43 -6 -49 -10 -56 -40
-7 -24 -14 -32 -32 -32 -23 0 -48 -22 -59 -52 -3 -9 -16 -18 -29 -20 -13 -2
-27 -12 -32 -24 -5 -11 -17 -25 -26 -30 -29 -16 -64 -32 -82 -38 -10 -3 -18
-15 -18 -26 0 -12 -12 -28 -31 -39 -30 -19 -69 -78 -69 -106 0 -8 -9 -15 -19
-15 -23 0 -32 -12 -40 -54 -5 -25 -13 -32 -34 -34 -29 -4 -31 -6 -41 -55 -4
-17 -16 -31 -31 -37 -15 -6 -25 -17 -25 -29 0 -11 -4 -23 -10 -26 -5 -3 -10
-16 -10 -29 0 -26 -17 -46 -41 -46 -14 0 -19 -14 -26 -72 -7 -66 -10 -73 -33
-78 -21 -5 -27 -15 -41 -75 -12 -56 -20 -71 -36 -73 -23 -3 -29 -30 -40 -184
-4 -63 -10 -88 -19 -88 -35 0 -44 -43 -56 -276 -12 -243 0 -596 22 -618 5 -5
10 -18 10 -28 0 -9 9 -22 19 -28 16 -8 20 -25 26 -97 8 -117 11 -130 34 -136
14 -3 22 -20 31 -63 15 -73 30 -106 52 -111 16 -5 22 -24 34 -119 6 -46 9 -51
37 -60 24 -7 33 -16 38 -40 8 -42 17 -54 40 -54 11 0 19 -7 19 -16 0 -45 25
-95 56 -113 18 -11 34 -29 36 -42 2 -15 12 -25 28 -29 19 -4 26 -14 30 -40 4
-30 10 -35 43 -43 26 -6 37 -14 37 -27 0 -31 11 -50 29 -50 22 0 41 -19 41
-42 0 -11 10 -20 28 -24 48 -10 50 -12 54 -41 2 -21 9 -29 28 -31 33 -5 50
-20 50 -43 0 -13 7 -19 24 -19 14 0 28 -4 31 -10 3 -5 15 -10 25 -10 10 0 27
-14 37 -30 10 -17 29 -33 43 -36 45 -10 52 -14 57 -34 4 -13 19 -23 47 -30 77
-19 91 -25 100 -46 10 -21 73 -44 122 -44 17 0 28 -7 31 -19 5 -22 -5 -18 225
-67 14 -3 28 -14 31 -24 7 -27 124 -35 532 -35 406 0 525 8 525 34 0 13 18 21
78 34 42 10 83 17 91 17 32 0 90 24 94 39 3 13 24 21 76 30 43 8 71 18 71 25
0 21 35 46 63 46 14 0 29 5 32 10 3 6 14 10 23 10 10 0 22 10 27 22 7 17 21
24 50 28 32 4 40 10 45 30 5 20 18 29 67 45 44 14 63 26 65 39 2 10 11 23 21
27 9 5 25 13 34 17 10 5 20 20 23 33 4 16 14 25 30 27 33 5 50 20 50 43 0 12
13 24 35 33 23 10 35 22 35 34 0 22 16 38 44 43 12 3 23 16 28 37 7 25 15 34
38 39 20 4 30 12 30 24 0 26 21 69 34 69 12 0 47 53 56 85 3 11 16 21 28 23
17 3 23 12 28 43 4 22 13 46 20 54 8 7 14 16 14 19 0 3 11 16 25 30 14 14 25
36 25 49 0 37 20 87 36 87 13 0 23 28 41 115 6 28 15 43 34 52 25 12 26 18 32
112 8 110 13 131 32 131 27 0 39 136 39 445 1 362 -7 475 -35 482 -22 6 -26
19 -34 128 -8 97 -22 140 -49 153 -17 7 -23 23 -31 78 -9 60 -13 69 -32 72
-18 3 -24 13 -33 60 -16 79 -16 81 -44 88 -20 5 -27 15 -35 55 -6 28 -11 57
-11 64 0 8 -9 15 -20 15 -21 0 -40 27 -40 58 0 21 -18 32 -51 32 -14 0 -19 7
-19 26 0 36 -17 64 -40 64 -13 0 -20 7 -20 18 0 11 -9 27 -20 37 -11 10 -20
24 -20 32 0 7 -6 13 -14 13 -16 0 -46 42 -46 64 0 8 -14 17 -30 21 -17 4 -36
15 -43 26 -6 10 -20 19 -29 19 -11 0 -18 8 -18 20 0 14 -11 22 -38 31 -28 8
-41 19 -49 40 -7 18 -19 29 -30 29 -24 0 -43 19 -43 41 0 19 -11 24 -77 34
-31 5 -43 12 -43 23 0 20 -33 43 -75 52 -20 4 -31 13 -33 26 -2 16 -15 24 -53
32 -28 7 -59 12 -69 12 -10 0 -22 9 -25 20 -9 29 -39 42 -130 54 -69 10 -80
15 -83 33 -3 18 -14 22 -110 32 -59 7 -111 17 -116 22 -6 5 -17 9 -26 9 -8 0
-27 11 -42 25 l-27 25 -344 0 -344 0 -12 -24z m663 -722 c27 -4 46 -12 46 -19
0 -17 16 -22 90 -31 82 -9 133 -27 145 -52 7 -16 22 -22 65 -27 65 -7 77 -14
93 -45 7 -13 32 -29 61 -39 27 -9 52 -23 54 -31 7 -21 34 -39 58 -40 15 0 24
-9 30 -31 7 -24 18 -34 44 -43 27 -9 36 -17 40 -41 4 -22 11 -31 28 -33 16 -3
25 -12 29 -33 3 -15 12 -34 19 -40 8 -6 14 -20 14 -30 0 -11 9 -19 22 -21 19
-2 25 -12 32 -50 7 -40 12 -48 30 -48 17 0 24 -9 34 -47 25 -94 27 -98 50
-101 13 -2 22 -10 22 -20 0 -67 22 -188 35 -198 8 -6 15 -17 15 -24 0 -8 8
-22 18 -33 16 -17 17 -52 17 -406 0 -368 -1 -388 -20 -421 -11 -19 -28 -41
-37 -48 -11 -8 -18 -26 -18 -45 0 -68 -12 -106 -33 -109 -12 -2 -24 -15 -30
-33 -13 -39 -20 -43 -94 -51 -44 -4 -63 -11 -63 -20 0 -9 -11 -14 -30 -14 -19
0 -30 5 -30 14 0 11 -22 16 -87 21 -127 10 -186 23 -200 43 -27 37 -36 42 -83
42 -57 0 -100 14 -100 32 0 18 -69 38 -128 38 -40 0 -57 6 -87 30 -21 17 -50
34 -64 38 -14 4 -145 7 -291 7 -289 0 -339 -7 -359 -51 -9 -21 -17 -24 -66
-24 -71 0 -145 -18 -145 -36 0 -21 -35 -34 -95 -34 -51 0 -56 -2 -67 -27 -7
-16 -13 -29 -14 -31 -2 -4 -229 -31 -261 -32 -14 0 -23 -6 -23 -15 0 -10 -10
-15 -30 -15 -19 0 -30 5 -30 14 0 9 -22 16 -72 22 l-73 9 -9 37 c-7 26 -15 38
-30 40 -16 2 -23 16 -34 63 -8 33 -16 66 -18 73 -2 8 -13 16 -23 19 -10 3 -22
17 -26 31 -9 37 -19 565 -11 596 4 17 13 26 26 26 12 0 24 10 29 23 11 28 40
54 66 59 11 2 21 12 23 24 2 17 15 23 66 33 54 11 64 16 73 40 9 25 16 29 72
35 53 6 63 11 71 31 7 19 21 26 67 35 86 17 89 18 101 44 9 20 21 26 65 31 63
8 73 13 78 40 3 14 20 23 69 35 54 13 66 20 68 39 4 23 7 25 55 35 17 4 31 16
37 31 6 16 17 25 30 25 11 0 23 7 26 15 4 8 14 15 25 15 10 0 24 12 31 28 8
16 25 31 45 36 25 8 33 17 38 43 3 19 13 37 21 40 7 3 14 12 14 19 0 8 11 19
24 26 18 7 27 22 31 49 5 29 12 39 28 41 19 3 23 12 30 63 5 33 13 67 18 75 5
8 13 24 18 35 5 12 16 27 25 34 13 11 16 34 16 111 0 53 3 100 7 103 8 9 235
9 297 1z m-78 -2352 c4 -13 29 -22 107 -37 92 -18 102 -22 107 -45 4 -17 14
-26 30 -28 43 -6 50 -20 49 -91 -1 -36 -4 -79 -8 -96 -6 -30 -16 -34 -103 -52
-19 -3 -28 -12 -28 -24 0 -26 -2 -26 -175 -45 -177 -20 -213 -20 -365 -5 -184
19 -205 24 -208 46 -2 16 -17 24 -65 35 -61 15 -62 16 -69 55 -11 64 -9 150 4
163 7 7 22 12 35 12 16 0 23 6 23 19 0 11 5 23 10 26 15 9 167 45 191 45 12 0
19 7 19 20 0 19 7 20 221 20 203 0 221 -1 225 -18z"/>
<path d="M1034 843 c-6 -19 -20 -29 -49 -37 -23 -7 -44 -20 -49 -32 -9 -21
-67 -44 -110 -44 -18 0 -25 -7 -29 -28 -5 -26 -13 -30 -69 -44 -52 -12 -63
-18 -68 -39 -4 -15 -14 -25 -29 -27 -12 -2 -24 -9 -26 -15 -3 -7 -6 -139 -7
-295 l-3 -282 883 0 c485 0 882 2 882 4 0 2 -7 20 -15 40 -11 25 -22 36 -36
36 -28 0 -59 18 -59 35 0 13 -56 35 -89 35 -17 0 -40 29 -41 53 0 11 -8 17
-24 17 -37 0 -56 10 -56 30 0 10 -10 20 -22 23 -74 18 -118 42 -118 67 0 20
-11 25 -77 35 -34 5 -43 12 -51 35 -8 21 -19 30 -48 37 -29 6 -40 15 -44 33
-3 14 -14 26 -25 28 -73 10 -104 25 -114 53 -7 20 -17 29 -31 29 -33 0 -60 19
-60 40 0 13 -7 20 -19 20 -11 0 -40 9 -65 20 -32 13 -46 25 -46 39 0 19 -6 23
-62 35 -19 4 -28 13 -28 26 0 13 -7 20 -19 20 -11 0 -32 7 -48 15 -15 8 -40
17 -55 20 -19 4 -28 12 -28 25 0 30 -34 25 -46 -7z"/>
<path d="M3740 850 c0 -11 -6 -22 -12 -24 -7 -2 -29 -9 -48 -16 -19 -7 -47
-14 -62 -17 -18 -3 -28 -12 -30 -26 -2 -15 -14 -24 -41 -30 -29 -7 -41 -16
-48 -36 -9 -25 -61 -51 -103 -51 -8 0 -21 -12 -28 -27 -8 -18 -24 -30 -41 -33
-16 -3 -36 -18 -47 -35 -15 -24 -31 -32 -72 -40 -43 -9 -54 -14 -56 -33 -2
-14 -12 -24 -30 -28 -49 -10 -52 -13 -58 -43 -6 -29 -10 -31 -66 -37 -42 -5
-61 -12 -65 -23 -9 -32 -21 -46 -39 -49 -37 -6 -93 -37 -97 -54 -3 -11 -19
-20 -46 -24 -35 -6 -42 -11 -49 -38 -5 -19 -15 -32 -28 -34 -67 -10 -103 -25
-106 -46 -2 -16 -11 -22 -35 -24 -36 -4 -48 -15 -58 -55 l-7 -27 879 0 880 0
7 77 c8 97 8 441 0 481 -5 24 -12 32 -33 34 -17 2 -30 13 -39 31 -9 18 -21 27
-37 27 -13 0 -27 5 -30 10 -3 6 -18 10 -31 10 -19 0 -29 8 -37 29 -8 21 -19
31 -41 35 -82 14 -96 19 -96 34 0 19 -29 41 -55 42 -27 1 -55 23 -55 44 0 9
-8 16 -20 16 -13 0 -20 -7 -20 -20z"/>
</g>
</svg>
